<svg width="252" height="65" viewBox="0 0 252 65" fill="none" xmlns="http://www.w3.org/2000/svg">
<path d="M43.929 24.3141C43.9391 24.3479 43.9452 24.3828 43.9471 24.4181C43.9722 24.6662 43.9848 24.9154 43.9848 25.1655V25.1776C43.9888 26.3841 43.6909 27.5724 43.1183 28.6344C43.1259 28.5832 41.3326 30.8194 40.5068 31.3499C39.3616 32.0882 38.028 32.4846 36.6657 32.4921H36.0509C37.7335 31.7071 39.2423 30.5938 40.4888 29.2176C40.6118 29.0686 40.6729 28.878 40.6594 28.6852C40.6459 28.4925 40.5588 28.3123 40.4162 28.1818C40.2736 28.0514 40.0864 27.9808 39.8932 27.9845C39.7 27.9883 39.5156 28.0661 39.3782 28.2019C36.9321 30.7931 33.5753 32.3329 30.0157 32.4966H27.6243C26.2954 32.4939 24.9941 32.1174 23.8691 31.4101C23.0945 30.9249 21.2651 28.755 21.2711 28.8047C20.6392 27.7005 20.3077 26.4498 20.3097 25.1776V25.1655C20.3097 24.9756 20.3168 24.7883 20.3308 24.6034C20.3328 24.5803 20.3369 24.5587 20.3429 24.5386C20.35 24.5146 20.354 24.4898 20.3549 24.4648C20.3881 24.084 20.4504 23.7088 20.5418 23.3391V23.321C20.9493 21.7533 21.866 20.3654 23.1479 19.3753C24.4299 18.3852 26.0045 17.849 27.6243 17.851H36.6657C38.2092 17.8508 39.7131 18.3393 40.9618 19.2464C42.2106 20.1536 43.1401 21.4327 43.6171 22.9006L43.6307 22.9202L43.6397 22.9594L43.6563 23.0016L43.6729 23.0423C43.6869 23.0975 43.6985 23.1543 43.7075 23.2125C43.7146 23.2628 43.7241 23.3125 43.7362 23.3617C43.8125 23.649 43.8708 23.9404 43.911 24.2357C43.915 24.2609 43.9205 24.2865 43.9275 24.3126M28.8298 21.3606L28.765 21.451C28.7285 21.507 28.6958 21.5654 28.6671 21.6258C28.6409 21.679 28.6128 21.7307 28.5827 21.781C30.402 23.393 31.6612 25.542 32.1782 27.9171C32.6885 25.6241 33.8916 23.5434 35.6245 21.9573L35.5642 21.8533C35.4637 21.6767 35.3561 21.5043 35.2417 21.3364C34.8831 20.8166 34.4031 20.392 33.8433 20.0995C33.2836 19.8069 32.661 19.6553 32.0294 19.6577C31.3978 19.66 30.7764 19.8164 30.2188 20.1131C29.6613 20.4098 29.1845 20.838 28.8298 21.3606ZM27.6243 30.9852H29.9359V30.9897C30.2071 30.9792 30.4738 30.949 30.7436 30.9204L30.8054 30.9129C30.9437 30.3131 30.9621 29.6919 30.8596 29.085L30.7888 28.6661C30.3988 26.3516 29.2051 24.2487 27.4178 22.7273C27.0391 22.4045 26.5964 22.1655 26.1187 22.0261C25.641 21.8866 25.1392 21.8498 24.6463 21.9182C24.1534 21.9865 23.6806 22.1584 23.2588 22.4225C22.8371 22.6866 22.476 23.037 22.1994 23.4506C21.9132 24.3107 21.8352 25.2263 21.9719 26.1224C22.1085 27.0184 22.456 27.8692 22.9856 28.6048C23.5152 29.3404 24.2119 29.9397 25.0183 30.3536C25.8247 30.7674 26.7179 30.9839 27.6243 30.9852ZM40.7284 26.6031C41.2394 26.7971 41.6629 27.1697 41.9203 27.6519L41.9218 27.6685C42.5345 26.377 42.642 24.9032 42.2232 23.5365C41.8426 22.9364 41.2874 22.4672 40.6323 22.1919C39.9771 21.9166 39.2534 21.8484 38.5584 21.9965C38.4298 22.0266 38.3032 22.0643 38.1787 22.1095C37.8705 22.2093 37.5778 22.3518 37.3092 22.5329C37.1829 22.605 37.0621 22.6861 36.9475 22.7755L36.9144 22.8027L36.8677 22.8433C35.1084 24.3663 33.9359 26.4554 33.5525 28.7504L33.4937 29.1121C33.4283 29.5106 33.4167 29.916 33.459 30.3176C35.2838 29.6778 36.9279 28.6085 38.2525 27.1998C38.5562 26.8613 38.9555 26.623 39.3976 26.5165C39.8398 26.4099 40.3038 26.4401 40.7284 26.6031Z" fill="black"/>
<path d="M50.6514 22.0266L53.2418 20.9899L53.2538 28.5169L51.7349 29.1196V29.4376C51.7336 32.3481 50.9295 35.2018 49.4112 37.6849H53.2418V45.3912H42.0439C42.0068 45.3912 41.9702 45.4003 41.9374 45.4177C41.9046 45.4352 41.8766 45.4604 41.8559 45.4913C41.8352 45.5221 41.8224 45.5576 41.8186 45.5945C41.8149 45.6315 41.8203 45.6688 41.8345 45.7032C41.8535 45.7495 41.8874 45.7882 41.9309 45.8132L44.5333 47.3201C45.0449 47.6154 45.4182 48.1019 45.5711 48.6725C45.7239 49.243 45.6439 49.851 45.3486 50.3625C45.0532 50.8741 44.5667 51.2474 43.9962 51.4003C43.4256 51.5532 42.8177 51.4731 42.3061 51.1778L39.886 49.7809C39.7283 51.0288 39.121 52.1764 38.1778 53.0086C37.2346 53.8408 36.0204 54.3005 34.7625 54.3016H31.2183C31.0644 54.3016 30.9168 54.2405 30.808 54.1317C30.6992 54.0229 30.6381 53.8753 30.6381 53.7214V53.4291C30.6385 52.0588 31.183 50.7447 32.152 49.7758C33.1209 48.8068 34.435 48.2623 35.8053 48.2619H37.258L34.0422 46.4054C32.8968 45.744 31.5976 45.3958 30.2749 45.3958H11.0483V37.8612L14.2625 36.5803C13.1542 34.3876 12.5717 31.9669 12.5612 29.5099C12.549 29.3797 12.5425 29.2489 12.5416 29.1181C12.4878 25.9557 13.1946 22.8266 14.6026 19.9943C16.0106 17.1621 18.0785 14.7096 20.6322 12.8435C21.2382 12.409 21.9599 12.1649 22.7053 12.1423C23.4506 12.1198 24.1858 12.3198 24.8169 12.7169C25.2358 12.9791 25.6005 13.3212 25.8868 13.7235L25.9305 13.7853C26.0669 12.8963 26.5167 12.0855 27.1988 11.4993C27.8809 10.9131 28.7502 10.5903 29.6496 10.5892C32.5428 10.5635 35.421 11.0081 38.1727 11.9047C38.2289 11.8113 38.2887 11.7193 38.352 11.6289C38.6386 11.2255 39.002 10.8826 39.4212 10.6196C39.8405 10.3567 40.3074 10.1789 40.7954 10.0965C41.2834 10.0141 41.7828 10.0286 42.2651 10.1393C42.7475 10.2499 43.2033 10.4545 43.6066 10.7414C46.0892 12.7415 48.031 15.3319 49.2545 18.2759C49.813 19.4915 50.2787 20.7417 50.6514 22.0266ZM48.721 29.5069V29.4376L48.7346 29.3833L48.7301 29.1573L48.7256 28.9313V28.8921C48.6753 27.136 48.4333 25.3907 48.0037 23.6872C47.951 23.5091 47.9007 23.3303 47.8531 23.1508C47.5081 21.9092 47.0641 20.6973 46.5255 19.5266C46.5044 19.4734 46.4823 19.4232 46.4592 19.376L46.4366 19.3292L46.3461 19.1364L46.1548 18.7461C45.4482 17.295 44.5595 15.9399 43.5101 14.7136C43.0186 14.1527 42.4691 13.6456 41.8706 13.2006C41.7891 13.1422 41.6967 13.1006 41.5989 13.0784C41.5011 13.0561 41.3998 13.0536 41.301 13.071C41.2027 13.0874 41.1086 13.1232 41.0242 13.1762C40.9398 13.2292 40.8668 13.2984 40.8093 13.3798C40.7518 13.4612 40.7111 13.5533 40.6895 13.6505C40.6678 13.7478 40.6657 13.8484 40.6832 13.9466C40.7164 14.1434 40.8265 14.319 40.9891 14.4348C41.5376 14.8396 42.0304 15.3038 42.4674 15.8272C42.9897 16.443 43.4624 17.096 43.8854 17.7862C44.2852 18.4341 44.6484 19.1017 44.9749 19.7888C43.8565 18.5365 42.5591 17.4564 41.1247 16.5836C40.748 16.3526 40.3517 16.1291 39.9357 15.9131C39.7287 15.8096 39.5203 15.7091 39.3104 15.6117L39.1597 15.5394L38.8463 15.3992C38.5175 15.256 38.1848 15.1218 37.8487 14.9969L37.5398 14.8839C37.0234 14.703 36.4834 14.5373 35.9198 14.3866C34.5728 14.0355 33.197 13.8055 31.809 13.6994C31.0906 13.6426 30.3702 13.6145 29.6496 13.615C29.4497 13.615 29.2581 13.6944 29.1168 13.8357C28.9755 13.977 28.8961 14.1687 28.8961 14.3685C28.8961 14.5683 28.9755 14.76 29.1168 14.9013C29.2581 15.0426 29.4497 15.1219 29.6496 15.1219C30.3789 15.1219 31.0786 15.1491 31.7487 15.2033C33.1601 15.3133 34.5572 15.5622 35.9198 15.9462L36.2589 16.0502C36.3975 16.0904 36.5357 16.1326 36.6733 16.1768C37.3062 16.3857 37.927 16.6289 38.5358 16.9061C37.9196 16.7753 37.2945 16.6907 36.6658 16.653C36.4126 16.6289 36.1639 16.6289 35.9123 16.6289H28.3777C27.8275 16.6264 27.2777 16.6617 26.7322 16.7343L26.4866 16.7675C24.1042 17.123 21.8704 18.143 20.0415 19.7105C20.5292 19.047 21.0705 18.4245 21.6599 17.8495C22.1565 17.3653 22.6895 16.92 23.2543 16.5173C23.3547 16.4453 23.4359 16.3496 23.4907 16.2387C23.5454 16.1278 23.572 16.0051 23.5682 15.8815C23.5643 15.7579 23.5301 15.6372 23.4685 15.5299C23.4069 15.4227 23.3199 15.3323 23.2151 15.2666C23.088 15.1878 22.9403 15.1485 22.7908 15.1539C22.6413 15.1592 22.4968 15.209 22.3757 15.2967C21.782 15.7217 21.2209 16.1878 20.6925 16.6952C20.0109 17.348 19.3863 18.0578 18.8254 18.8169L18.7335 18.957C16.6207 21.9189 15.5074 25.4773 15.5554 29.1151C15.5517 29.1727 15.5563 29.2306 15.569 29.2869V29.4376C15.5722 32.8326 16.9231 36.0874 19.3249 38.4869C21.7266 40.8864 24.9827 42.2343 28.3777 42.2343H35.9123C37.7781 42.237 39.6218 41.8312 41.314 41.0452C43.0061 40.2593 44.5057 39.1123 45.7072 37.6849H45.7163C47.6427 35.3938 48.7058 32.5003 48.721 29.5069Z" fill="black"/>
<path d="M82.1511 14.6353V20.2035H74.1784V44.1639H68.357V20.2035H60.4264V14.6353H82.1511ZM101.599 44.1639L95.6515 33.9133H91.2222V44.1639H85.4009V14.6353H97.2123C99.9402 14.6353 102.26 15.5914 104.173 17.5038C106.085 19.4161 107.041 21.7221 107.041 24.4219C107.041 26.2499 106.521 27.9513 105.48 29.5261C104.44 31.0729 103.062 32.24 101.346 33.0274L107.885 44.1639H101.599ZM91.2222 20.077V28.809H97.2123C98.3091 28.809 99.2512 28.3872 100.039 27.5435C100.826 26.6717 101.22 25.6312 101.22 24.4219C101.22 23.2126 100.826 22.1862 100.039 21.3425C99.2512 20.4988 98.3091 20.077 97.2123 20.077H91.2222ZM111.313 14.6353H117.134V44.1639H111.313V14.6353ZM133.61 14.6353C136.45 14.6353 138.841 15.5914 140.781 17.5038C142.722 19.4161 143.692 21.7643 143.692 24.5485C143.692 27.3326 142.722 29.6808 140.781 31.5931C138.841 33.5055 136.45 34.4616 133.61 34.4616H128.421V44.1639H122.6V14.6353H133.61ZM133.61 29.0199C134.847 29.0199 135.874 28.5981 136.689 27.7544C137.505 26.8826 137.913 25.814 137.913 24.5485C137.913 23.2548 137.505 22.1862 136.689 21.3425C135.874 20.4988 134.847 20.077 133.61 20.077H128.421V29.0199H133.61ZM164.566 14.6353H170.388V44.1639H165.958L153.303 26.1093V44.1639H147.482V14.6353H151.911L164.566 32.6477V14.6353ZM181.687 38.5957H194.131V44.1639H175.865V14.6353H193.92V20.2035H181.687V26.4889H192.865V31.9728H181.687V38.5957ZM208.316 44.7545C205.391 44.7545 202.931 44.1077 200.934 42.814C198.937 41.4923 197.531 39.7065 196.716 37.4567L201.693 34.546C202.846 37.5551 205.11 39.0597 208.485 39.0597C210.116 39.0597 211.311 38.7644 212.071 38.1738C212.83 37.5832 213.209 36.838 213.209 35.9381C213.209 34.8975 212.745 34.096 211.817 33.5336C210.889 32.943 209.23 32.3103 206.84 31.6353C205.518 31.2416 204.393 30.8479 203.465 30.4542C202.565 30.0605 201.651 29.5402 200.723 28.8934C199.823 28.2184 199.134 27.3748 198.656 26.3624C198.178 25.3499 197.939 24.1688 197.939 22.8189C197.939 20.1473 198.881 18.024 200.765 16.4492C202.678 14.8462 204.97 14.0447 207.641 14.0447C210.032 14.0447 212.127 14.6353 213.927 15.8164C215.755 16.9694 217.175 18.5865 218.187 20.6675L213.294 23.4939C212.113 20.9628 210.229 19.6973 207.641 19.6973C206.432 19.6973 205.476 19.9785 204.773 20.541C204.098 21.0753 203.76 21.7784 203.76 22.6502C203.76 23.5782 204.14 24.3375 204.899 24.9281C205.687 25.4906 207.177 26.1093 209.371 26.7842C210.271 27.0654 210.946 27.2904 211.396 27.4591C211.874 27.5997 212.506 27.8388 213.294 28.1763C214.109 28.4856 214.728 28.7809 215.15 29.0621C215.6 29.3433 216.106 29.723 216.669 30.2011C217.231 30.6792 217.653 31.1713 217.934 31.6775C218.243 32.1837 218.497 32.8024 218.693 33.5336C218.918 34.2367 219.031 35.01 219.031 35.8537C219.031 38.5816 218.033 40.747 216.036 42.35C214.067 43.953 211.494 44.7545 208.316 44.7545ZM241.288 14.6353V20.2035H233.315V44.1639H227.494V20.2035H219.563V14.6353H241.288Z" fill="#1E1E1E"/>
</svg>
