<svg width="252" height="65" viewBox="0 0 252 65" fill="none" xmlns="http://www.w3.org/2000/svg">
<path d="M43.929 24.3141C43.9391 24.3479 43.9452 24.3828 43.9471 24.4181C43.9722 24.6662 43.9848 24.9154 43.9848 25.1655V25.1776C43.9888 26.3841 43.6909 27.5724 43.1183 28.6344C43.1259 28.5832 41.3326 30.8194 40.5068 31.3499C39.3616 32.0882 38.028 32.4846 36.6657 32.4921H36.0509C37.7335 31.7071 39.2423 30.5938 40.4888 29.2176C40.6118 29.0686 40.6729 28.878 40.6594 28.6852C40.6459 28.4925 40.5588 28.3123 40.4162 28.1818C40.2736 28.0514 40.0864 27.9808 39.8932 27.9845C39.7 27.9883 39.5156 28.0661 39.3782 28.2019C36.9321 30.7931 33.5753 32.3329 30.0157 32.4966H27.6243C26.2954 32.4939 24.9941 32.1174 23.8691 31.4101C23.0945 30.9249 21.2651 28.755 21.2711 28.8047C20.6392 27.7005 20.3077 26.4498 20.3097 25.1776V25.1655C20.3097 24.9756 20.3168 24.7883 20.3308 24.6034C20.3328 24.5803 20.3369 24.5587 20.3429 24.5386C20.35 24.5146 20.354 24.4898 20.3549 24.4648C20.3881 24.084 20.4504 23.7088 20.5418 23.3391V23.321C20.9493 21.7533 21.866 20.3654 23.1479 19.3753C24.4299 18.3852 26.0045 17.849 27.6243 17.851H36.6657C38.2092 17.8508 39.7131 18.3393 40.9618 19.2464C42.2106 20.1536 43.1401 21.4327 43.6171 22.9006L43.6307 22.9202L43.6397 22.9594L43.6563 23.0016L43.6729 23.0423C43.6869 23.0975 43.6985 23.1543 43.7075 23.2125C43.7146 23.2628 43.7241 23.3125 43.7362 23.3617C43.8125 23.649 43.8708 23.9404 43.911 24.2357C43.915 24.2609 43.9205 24.2865 43.9275 24.3126M28.8298 21.3606L28.765 21.451C28.7285 21.507 28.6958 21.5654 28.6671 21.6258C28.6409 21.679 28.6128 21.7307 28.5827 21.781C30.402 23.393 31.6612 25.542 32.1782 27.9171C32.6885 25.6241 33.8916 23.5434 35.6245 21.9573L35.5642 21.8533C35.4637 21.6767 35.3561 21.5043 35.2417 21.3364C34.8831 20.8166 34.4031 20.392 33.8433 20.0995C33.2836 19.8069 32.661 19.6553 32.0294 19.6577C31.3978 19.66 30.7764 19.8164 30.2188 20.1131C29.6613 20.4098 29.1845 20.838 28.8298 21.3606ZM27.6243 30.9852H29.9359V30.9897C30.2071 30.9792 30.4738 30.949 30.7436 30.9204L30.8054 30.9129C30.9437 30.3131 30.9621 29.6919 30.8596 29.085L30.7888 28.6661C30.3988 26.3516 29.2051 24.2487 27.4178 22.7273C27.0391 22.4045 26.5964 22.1655 26.1187 22.0261C25.641 21.8866 25.1392 21.8498 24.6463 21.9182C24.1534 21.9865 23.6806 22.1584 23.2588 22.4225C22.8371 22.6866 22.476 23.037 22.1994 23.4506C21.9132 24.3107 21.8352 25.2263 21.9719 26.1224C22.1085 27.0184 22.456 27.8692 22.9856 28.6048C23.5152 29.3404 24.2119 29.9397 25.0183 30.3536C25.8247 30.7674 26.7179 30.9839 27.6243 30.9852ZM40.7284 26.6031C41.2394 26.7971 41.6629 27.1697 41.9203 27.6519L41.9218 27.6685C42.5345 26.377 42.642 24.9032 42.2232 23.5365C41.8426 22.9364 41.2874 22.4672 40.6323 22.1919C39.9771 21.9166 39.2534 21.8484 38.5584 21.9965C38.4298 22.0266 38.3032 22.0643 38.1787 22.1095C37.8705 22.2093 37.5778 22.3518 37.3092 22.5329C37.1829 22.605 37.0621 22.6861 36.9475 22.7755L36.9144 22.8027L36.8677 22.8433C35.1084 24.3663 33.9359 26.4554 33.5525 28.7504L33.4937 29.1121C33.4283 29.5106 33.4167 29.916 33.459 30.3176C35.2838 29.6778 36.9279 28.6085 38.2525 27.1998C38.5562 26.8613 38.9555 26.623 39.3976 26.5165C39.8398 26.4099 40.3038 26.4401 40.7284 26.6031Z" fill="white"/>
<path d="M50.6514 22.0265L53.2418 20.9898L53.2538 28.5168L51.7349 29.1196V29.4375C51.7336 32.348 50.9295 35.2018 49.4112 37.6848H53.2418V45.3912H42.0439C42.0068 45.3911 41.9702 45.4002 41.9374 45.4177C41.9046 45.4351 41.8766 45.4604 41.8559 45.4912C41.8352 45.5221 41.8224 45.5575 41.8186 45.5945C41.8149 45.6314 41.8203 45.6688 41.8345 45.7031C41.8535 45.7495 41.8874 45.7882 41.9309 45.8131L44.5333 47.32C45.0449 47.6154 45.4182 48.1018 45.5711 48.6724C45.7239 49.243 45.6439 49.8509 45.3486 50.3625C45.0532 50.874 44.5667 51.2473 43.9962 51.4002C43.4256 51.5531 42.8177 51.4731 42.3061 51.1777L39.886 49.7808C39.7283 51.0287 39.121 52.1763 38.1778 53.0085C37.2346 53.8407 36.0204 54.3005 34.7625 54.3015H31.2183C31.0644 54.3015 30.9168 54.2404 30.808 54.1316C30.6992 54.0228 30.6381 53.8753 30.6381 53.7214V53.429C30.6385 52.0587 31.183 50.7447 32.152 49.7757C33.1209 48.8068 34.435 48.2622 35.8053 48.2618H37.258L34.0422 46.4053C32.8968 45.744 31.5976 45.3958 30.2749 45.3957H11.0483V37.8612L14.2625 36.5803C13.1542 34.3875 12.5717 31.9668 12.5612 29.5099C12.549 29.3796 12.5425 29.2489 12.5416 29.1181C12.4878 25.9556 13.1946 22.8265 14.6026 19.9943C16.0106 17.162 18.0785 14.7096 20.6322 12.8434C21.2382 12.4089 21.9599 12.1648 22.7053 12.1423C23.4506 12.1197 24.1858 12.3198 24.8169 12.7169C25.2358 12.9791 25.6005 13.3211 25.8868 13.7235L25.9305 13.7853C26.0669 12.8963 26.5167 12.0854 27.1988 11.4992C27.8809 10.913 28.7502 10.5902 29.6496 10.5891C32.5428 10.5635 35.421 11.008 38.1727 11.9046C38.2289 11.8112 38.2887 11.7193 38.352 11.6289C38.6386 11.2255 39.002 10.8825 39.4212 10.6196C39.8405 10.3566 40.3074 10.1789 40.7954 10.0964C41.2834 10.014 41.7828 10.0285 42.2651 10.1392C42.7475 10.2498 43.2033 10.4544 43.6066 10.7413C46.0892 12.7414 48.031 15.3319 49.2545 18.2758C49.813 19.4914 50.2787 20.7417 50.6514 22.0265ZM48.721 29.5068V29.4375L48.7346 29.3833L48.7301 29.1572L48.7256 28.9312V28.892C48.6753 27.136 48.4333 25.3906 48.0037 23.6872C47.951 23.5091 47.9007 23.3302 47.8531 23.1507C47.5081 21.9091 47.0641 20.6972 46.5255 19.5266C46.5044 19.4733 46.4823 19.4231 46.4592 19.3759L46.4366 19.3292L46.3461 19.1363L46.1548 18.746C45.4482 17.2949 44.5595 15.9398 43.5101 14.7135C43.0186 14.1527 42.4691 13.6455 41.8706 13.2006C41.7891 13.1421 41.6967 13.1006 41.5989 13.0783C41.5011 13.0561 41.3998 13.0536 41.301 13.071C41.2027 13.0874 41.1086 13.1231 41.0242 13.1761C40.9398 13.2291 40.8668 13.2983 40.8093 13.3798C40.7518 13.4612 40.7111 13.5532 40.6895 13.6505C40.6678 13.7478 40.6657 13.8484 40.6832 13.9465C40.7164 14.1433 40.8265 14.3189 40.9891 14.4347C41.5376 14.8396 42.0304 15.3037 42.4674 15.8271C42.9897 16.4429 43.4624 17.0959 43.8854 17.7861C44.2852 18.4341 44.6484 19.1016 44.9749 19.7888C43.8565 18.5364 42.5591 17.4563 41.1247 16.5836C40.748 16.3525 40.3517 16.129 39.9357 15.913C39.7287 15.8096 39.5203 15.7091 39.3104 15.6116L39.1597 15.5393L38.8463 15.3992C38.5175 15.2559 38.1848 15.1218 37.8487 14.9968L37.5398 14.8838C37.0234 14.703 36.4834 14.5372 35.9198 14.3865C34.5728 14.0354 33.197 13.8054 31.809 13.6994C31.0906 13.6426 30.3702 13.6144 29.6496 13.615C29.4497 13.615 29.2581 13.6944 29.1168 13.8357C28.9755 13.977 28.8961 14.1686 28.8961 14.3684C28.8961 14.5683 28.9755 14.7599 29.1168 14.9012C29.2581 15.0425 29.4497 15.1219 29.6496 15.1219C30.3789 15.1219 31.0786 15.149 31.7487 15.2033C33.1601 15.3133 34.5572 15.5621 35.9198 15.9462L36.2589 16.0501C36.3975 16.0903 36.5357 16.1325 36.6733 16.1767C37.3062 16.3857 37.927 16.6288 38.5358 16.9061C37.9196 16.7753 37.2945 16.6906 36.6658 16.6529C36.4126 16.6288 36.1639 16.6288 35.9123 16.6288H28.3777C27.8275 16.6264 27.2777 16.6616 26.7322 16.7343L26.4866 16.7674C24.1042 17.1229 21.8704 18.1429 20.0415 19.7104C20.5292 19.0469 21.0705 18.4245 21.6599 17.8494C22.1565 17.3652 22.6895 16.9199 23.2543 16.5173C23.3547 16.4452 23.4359 16.3495 23.4907 16.2386C23.5454 16.1277 23.572 16.0051 23.5682 15.8815C23.5643 15.7579 23.5301 15.6371 23.4685 15.5299C23.4069 15.4226 23.3199 15.3322 23.2151 15.2665C23.088 15.1877 22.9403 15.1484 22.7908 15.1538C22.6413 15.1592 22.4968 15.2089 22.3757 15.2967C21.782 15.7216 21.2209 16.1878 20.6925 16.6951C20.0109 17.3479 19.3863 18.0577 18.8254 18.8168L18.7335 18.957C16.6207 21.9188 15.5074 25.4772 15.5554 29.115C15.5517 29.1727 15.5563 29.2305 15.569 29.2868V29.4375C15.5722 32.8325 16.9231 36.0874 19.3249 38.4869C21.7266 40.8864 24.9827 42.2342 28.3777 42.2342H35.9123C37.7781 42.237 39.6218 41.8311 41.314 41.0451C43.0061 40.2592 44.5057 39.1122 45.7072 37.6848H45.7163C47.6427 35.3937 48.7058 32.5002 48.721 29.5068Z" fill="white"/>
<path d="M82.1511 14.6352V20.2034H74.1784V44.1638H68.357V20.2034H60.4264V14.6352H82.1511ZM101.599 44.1638L95.6515 33.9132H91.2222V44.1638H85.4009V14.6352H97.2123C99.9402 14.6352 102.26 15.5913 104.173 17.5037C106.085 19.416 107.041 21.722 107.041 24.4218C107.041 26.2498 106.521 27.9512 105.48 29.526C104.44 31.0728 103.062 32.2399 101.346 33.0273L107.885 44.1638H101.599ZM91.2222 20.0769V28.8089H97.2123C98.3091 28.8089 99.2512 28.3871 100.039 27.5434C100.826 26.6716 101.22 25.6311 101.22 24.4218C101.22 23.2125 100.826 22.1861 100.039 21.3424C99.2512 20.4987 98.3091 20.0769 97.2123 20.0769H91.2222ZM111.313 14.6352H117.134V44.1638H111.313V14.6352ZM133.61 14.6352C136.45 14.6352 138.841 15.5913 140.781 17.5037C142.722 19.416 143.692 21.7642 143.692 24.5484C143.692 27.3325 142.722 29.6807 140.781 31.5931C138.841 33.5054 136.45 34.4615 133.61 34.4615H128.421V44.1638H122.6V14.6352H133.61ZM133.61 29.0198C134.847 29.0198 135.874 28.598 136.689 27.7543C137.505 26.8825 137.913 25.8139 137.913 24.5484C137.913 23.2547 137.505 22.1861 136.689 21.3424C135.874 20.4987 134.847 20.0769 133.61 20.0769H128.421V29.0198H133.61ZM164.566 14.6352H170.388V44.1638H165.958L153.303 26.1092V44.1638H147.482V14.6352H151.911L164.566 32.6476V14.6352ZM181.687 38.5956H194.131V44.1638H175.865V14.6352H193.92V20.2034H181.687V26.4888H192.865V31.9727H181.687V38.5956ZM208.316 44.7544C205.391 44.7544 202.931 44.1076 200.934 42.8139C198.937 41.4922 197.531 39.7064 196.716 37.4566L201.693 34.5459C202.846 37.555 205.11 39.0596 208.485 39.0596C210.116 39.0596 211.311 38.7643 212.071 38.1737C212.83 37.5831 213.209 36.8379 213.209 35.938C213.209 34.8974 212.745 34.096 211.817 33.5335C210.889 32.9429 209.23 32.3102 206.84 31.6352C205.518 31.2415 204.393 30.8478 203.465 30.4541C202.565 30.0604 201.651 29.5401 200.723 28.8933C199.823 28.2183 199.134 27.3747 198.656 26.3623C198.178 25.3499 197.939 24.1687 197.939 22.8188C197.939 20.1472 198.881 18.0239 200.765 16.4491C202.678 14.8461 204.97 14.0446 207.641 14.0446C210.032 14.0446 212.127 14.6352 213.927 15.8163C215.755 16.9693 217.175 18.5864 218.187 20.6675L213.294 23.4938C212.113 20.9627 210.229 19.6972 207.641 19.6972C206.432 19.6972 205.476 19.9784 204.773 20.5409C204.098 21.0752 203.76 21.7783 203.76 22.6501C203.76 23.5781 204.14 24.3374 204.899 24.928C205.687 25.4905 207.177 26.1092 209.371 26.7841C210.271 27.0653 210.946 27.2903 211.396 27.459C211.874 27.5997 212.506 27.8387 213.294 28.1762C214.109 28.4855 214.728 28.7808 215.15 29.062C215.6 29.3432 216.106 29.7229 216.669 30.201C217.231 30.6791 217.653 31.1712 217.934 31.6774C218.243 32.1836 218.497 32.8023 218.693 33.5335C218.918 34.2366 219.031 35.0099 219.031 35.8536C219.031 38.5815 218.033 40.7469 216.036 42.3499C214.067 43.9529 211.494 44.7544 208.316 44.7544ZM241.288 14.6352V20.2034H233.315V44.1638H227.494V20.2034H219.563V14.6352H241.288Z" fill="white"/>
</svg>
